<svg xmlns="http://www.w3.org/2000/svg" width="278.667" height="278.667" version="1.0" viewBox="0 0 209 209"><path d="M67 1.7c-3.6.7-7.1 1.4-7.7 1.5-2.3.2-1.4 1.4 2.2 2.7C65.3 7.2 74 15.4 74 17.6c0 .7-1.5 2.1-3.2 3-6.8 3.5-17.4 11-22 15.6-5.1 5.1-7.6 9.9-8.4 16.2-.8 6.9-5.5 12.4-14.4 17.2-3 1.6-5.7 3.1-6 3.4-.3.3-3.1 1.4-6.3 2.3-3.1 1-5.7 2.3-5.7 2.8 0 3.7 3.6 12.2 6.6 15.8 6.5 7.5 9.7 8.6 26.9 8.8 17.7.3 21.8 1.4 27 7.6 7.7 8.9 8.3 21 2 36-.7 1.7-.4 1.7 3.5-.3 6.1-3.1 14.5-11.3 16.9-16.5 5.3-11.2 2.5-23.7-6.6-29.7L81.5 98h3.3c1.8 0 5.8.9 8.9 2 3.1 1.1 5.8 1.8 6 1.6.9-.9-10.8-8.6-14.7-9.6-5.1-1.4-17.1-1.6-24.5-.5-2.7.4-5.9.9-7 1-1.1.2-3.8.7-6 1.2s-7.4.9-11.6.8c-8.1-.1-11.5-1.7-15.9-7.2-3-3.9-2.6-6 1.7-7.4 6.2-2 14.5-7.5 20.1-13.1 4.2-4.2 6.2-5.5 8.8-5.6 4.3-.3 7.3-1.5 10-3.8 2-1.8 10.4-15.5 10.4-16.9 0-.4-1.5.4-3.4 1.9-1.9 1.4-6.4 3.6-9.9 4.9-8.1 3-8 1.7.5-6.6 6.7-6.4 16.6-12.6 24.6-15.1 5-1.7 5.2-1.9 4.7-4.9-.3-1.8-1.9-5.4-3.6-8.1-1.6-2.7-2.8-5-2.6-5.2.6-.6 12.1 2.8 15.7 4.6 1.9 1 5 3 6.9 4.4l3.3 2.5-3.3 1.4c-1.9.8-4.9 2.3-6.8 3.5l-3.5 2.1 8-.4c18.8-1 37.2 8.4 55.2 27.9 2 2.1 2.8 3.6 2 3.6-.8 0-1.8-.4-2.3-.8-1.5-1.3-12.5-5-17-5.7-2.2-.4-4.9-.9-6-1.2-1.7-.5-1.8-.4-.6 1.1.7.9 1.8 1.6 2.4 1.6 1.5 0 9.4 6.5 15 12.3 8.2 8.5 15 22.8 16.3 33.9l.6 5.3-4.5-7.5c-2.5-4.1-5.5-8.4-6.8-9.5-1.2-1.1-1.9-1.5-1.6-.8.8 1.2 2 11.2 2 15.3-.1 8.3-2.1 19.4-5.2 28.3-2.3 6.7-9.1 19.7-10.3 19.7-.4 0-.8.6-.8 1.3 0 1.9-12.6 14.7-18.3 18.6-12.6 8.6-23.1 12.4-41.4 14.9-7.6 1-19.6.4-25.5-1.4-.9-.3-2.5-.7-3.5-.9-4.3-1.1-9.3-3-9.3-3.7 0-.5-.6-.8-1.4-.8-.7 0-4.8-2.3-9-5-9.4-6.1-8.7-4.3 2.6 7.2 11.6 11.7 17.9 16.2 30.3 21.6 14.2 6.1 21.6 7.6 38 7.6 11.6.1 15.6-.3 24-2.5 29.1-7.5 55.1-30.5 65.3-57.9 4.1-11 3.5-8.9 5.1-17.9 2-11 1.8-24.9-.4-36.6-1.2-6-6.7-21.1-9.6-26.4l-3.1-5.4 2.9.8c1.5.3 4.9 2.2 7.5 4.1 2.7 1.9 4.8 3.1 4.8 2.7 0-1.4-6.5-12.1-10.5-17.3-6.8-8.8-16.8-17.2-24.8-21-5.4-2.6-5.7-3.4-.6-2 1.8.6 3.8 1 4.3 1 3 0-9.5-9-17.7-12.8-8.7-4-16.2-5.5-33.5-6.6-2.9-.2-6-1-7-1.8-5.5-4.9-19.8-9-30-8.7-3.1.2-8.6.8-12.2 1.6z"/></svg>