<?xml version="1.0" standalone="no"?>
<!DOCTYPE svg PUBLIC "-//W3C//DTD SVG 20010904//EN"
 "http://www.w3.org/TR/2001/REC-SVG-20010904/DTD/svg10.dtd">
<svg version="1.0" xmlns="http://www.w3.org/2000/svg"
 width="209.000000pt" height="209.000000pt" viewBox="0 0 209.000000 209.000000"
 preserveAspectRatio="xMidYMid meet">
<metadata>
Created by potrace 1.14, written by Peter Selinger 2001-2017
</metadata>
<g transform="translate(0.000000,209.000000) scale(0.100000,-0.100000)"
fill="#000000" stroke="none">
<path d="M670 2073 c-36 -7 -71 -14 -77 -15 -23 -2 -14 -14 22 -27 38 -13 125
-95 125 -117 0 -7 -15 -21 -32 -30 -68 -35 -174 -110 -220 -156 -51 -51 -76
-99 -84 -162 -8 -69 -55 -124 -144 -172 -30 -16 -57 -31 -60 -34 -3 -3 -31
-14 -63 -23 -31 -10 -57 -23 -57 -28 0 -37 36 -122 66 -158 65 -75 97 -86 269
-88 177 -3 218 -14 270 -76 77 -89 83 -210 20 -360 -7 -17 -4 -17 35 3 61 31
145 113 169 165 53 112 25 237 -66 297 l-28 18 33 0 c18 0 58 -9 89 -20 31
-11 58 -18 60 -16 9 9 -108 86 -147 96 -51 14 -171 16 -245 5 -27 -4 -59 -9
-70 -10 -11 -2 -38 -7 -60 -12 -22 -5 -74 -9 -116 -8 -81 1 -115 17 -159 72
-30 39 -26 60 17 74 62 20 145 75 201 131 42 42 62 55 88 56 43 3 73 15 100
38 20 18 104 155 104 169 0 4 -15 -4 -34 -19 -19 -14 -64 -36 -99 -49 -81 -30
-80 -17 5 66 67 64 166 126 246 151 50 17 52 19 47 49 -3 18 -19 54 -36 81
-16 27 -28 50 -26 52 6 6 121 -28 157 -46 19 -10 50 -30 69 -44 l33 -25 -33
-14 c-19 -8 -49 -23 -68 -35 l-35 -21 80 4 c188 10 372 -84 552 -279 20 -21
28 -36 20 -36 -8 0 -18 4 -23 8 -15 13 -125 50 -170 57 -22 4 -49 9 -60 12
-17 5 -18 4 -6 -11 7 -9 18 -16 24 -16 15 0 94 -65 150 -123 82 -85 150 -228
163 -339 l6 -53 -45 75 c-25 41 -55 84 -68 95 -12 11 -19 15 -16 8 8 -12 20
-112 20 -153 -1 -83 -21 -194 -52 -283 -23 -67 -91 -197 -103 -197 -4 0 -8 -6
-8 -13 0 -19 -126 -147 -183 -186 -126 -86 -231 -124 -414 -149 -76 -10 -196
-4 -255 14 -9 3 -25 7 -35 9 -43 11 -93 30 -93 37 0 5 -6 8 -14 8 -7 0 -48 23
-90 50 -94 61 -87 43 26 -72 116 -117 179 -162 303 -216 142 -61 216 -76 380
-76 116 -1 156 3 240 25 291 75 551 305 653 579 41 110 35 89 51 179 20 110
18 249 -4 366 -12 60 -67 211 -96 264 l-31 54 29 -8 c15 -3 49 -22 75 -41 27
-19 48 -31 48 -27 0 14 -65 121 -105 173 -68 88 -168 172 -248 210 -54 26 -57
34 -6 20 18 -6 38 -10 43 -10 30 0 -95 90 -177 128 -87 40 -162 55 -335 66
-29 2 -60 10 -70 18 -55 49 -198 90 -300 87 -31 -2 -86 -8 -122 -16z"/>
</g>
</svg>
